<svg xmlns="http://www.w3.org/2000/svg" version="1.1" xmlns:xlink="http://www.w3.org/1999/xlink" xmlns:svgjs="http://svgjs.com/svgjs" width="512" height="512" x="0" y="0" viewBox="0 0 497 497" style="enable-background:new 0 0 512 512" xml:space="preserve" class=""><g><g xmlns="http://www.w3.org/2000/svg"><path d="m0 473.394c0 8.284 6.716 15 15 15h449c8.284 0 15-6.716 15-15v-439.788c0-8.284-6.716-15-15-15h-439c-8.284 0-15 6.716-15 15l-10 82.183z" fill="#f7f9fa" data-original="#f7f9fa" class=""></path><path d="m472 10.606h-20c8.284 0 15 4.716 15 13v449.788c0 8.284-6.716 15-15 15h30c8.284 0 15-6.716 15-15v-357.604l-10-92.184c0-8.284-6.716-13-15-13z" fill="#e9edf1" data-original="#e9edf1" class=""></path><path d="m470 8.606h-455c-8.284 0-15 6.716-15 15v92.184h485v-92.184c0-8.284-6.716-15-15-15z" fill="#978ecb" data-original="#978ecb" class=""></path><path d="m482 8.606h-30c8.284 0 15 6.716 15 15v92.184h30v-92.184c0-8.284-6.716-15-15-15z" fill="#6e61b6" data-original="#6e61b6"></path><path d="m214.972 204.033v-36.296c0-5.523-4.477-10-10-10h-112.556c-5.523 0-10 4.477-10 10v26.296z" fill="#978ecb" data-original="#978ecb" class=""></path><path d="m194.972 204.033v-36.296c0-5.523-4.477-10-10-10h30c5.523 0 10 4.477 10 10v26.296z" fill="#6e61b6" data-original="#6e61b6"></path><path d="m404.584 399.29v36.296c0 5.523-4.477 10-10 10h-112.556c-5.523 0-10-4.477-10-10v-26.296z" fill="#978ecb" data-original="#978ecb" class=""></path><path d="m384.584 399.29v36.296c0 5.523-4.477 10-10 10h30c5.523 0 10-4.477 10-10v-26.296z" fill="#6e61b6" data-original="#6e61b6"></path><path d="m429.138 409.29h-373.276c-5.523 0-10-4.477-10-10v-195.257c0-5.523 4.477-10 10-10h373.275c5.523 0 10 4.477 10 10v195.257c.001 5.523-4.477 10-9.999 10z" fill="#fd8087" data-original="#fd8087" class=""></path><g><g><path d="m161.324 377.666c-.021 0-.043 0-.065 0-4.143-.036-7.471-3.423-7.436-7.564.087-10.036.175-21.199.255-32.619h-60.538c-2.653 0-5.109-1.402-6.458-3.686-1.35-2.285-1.391-5.113-.109-7.436 4.667-8.459 45.814-82.913 53.49-92.331 7.254-8.898 14.688-7.8 17.549-6.913 6.121 1.895 10.488 8.064 11.126 15.717.414 4.966.256 45.433.041 79.65h9.857c4.143 0 7.5 3.357 7.5 7.5s-3.357 7.5-7.5 7.5h-9.958c-.114 16.163-.223 28.986-.255 32.748-.036 4.119-3.387 7.434-7.499 7.434zm-55.059-55.184h47.913c.235-37.861.346-74.401.013-78.404-.078-.936-.314-1.668-.547-2.155-.396.313-.928.814-1.554 1.582-4.611 5.658-28.005 46.897-45.825 78.977z" fill="#f7f9fa" data-original="#f7f9fa" class=""></path></g></g><g><g><path d="m385.749 377.666c-.021 0-.043 0-.065 0-4.143-.036-7.471-3.423-7.436-7.564.087-10.036.175-21.198.254-32.619h-60.538c-2.653 0-5.109-1.402-6.458-3.686-1.35-2.285-1.391-5.113-.109-7.436 4.667-8.459 45.815-82.913 53.491-92.331 7.253-8.899 14.686-7.797 17.549-6.914 6.121 1.896 10.488 8.065 11.126 15.718.414 4.966.256 45.433.04 79.65h9.857c4.143 0 7.5 3.357 7.5 7.5s-3.357 7.5-7.5 7.5h-9.957c-.114 16.163-.223 28.986-.255 32.748-.036 4.119-3.387 7.434-7.499 7.434zm-55.06-55.184h47.913c.236-37.861.347-74.401.013-78.405-.077-.936-.313-1.667-.546-2.154-.395.313-.928.814-1.554 1.582-4.613 5.659-28.006 46.897-45.826 78.977z" fill="#f7f9fa" data-original="#f7f9fa" class=""></path></g></g><g><g><path d="m248.594 380.444c-25.845 0-46.871-21.026-46.871-46.871v-62.963c0-25.845 21.026-46.871 46.871-46.871s46.87 21.026 46.87 46.871v62.963c0 25.845-21.025 46.871-46.87 46.871zm0-141.705c-17.574 0-31.871 14.297-31.871 31.871v62.963c0 17.574 14.297 31.871 31.871 31.871 17.573 0 31.87-14.297 31.87-31.871v-62.963c0-17.574-14.297-31.871-31.87-31.871z" fill="#f7f9fa" data-original="#f7f9fa" class=""></path></g></g><path d="m441.138 194.033h-30c5.523 0 10 4.477 10 10v195.257c0 5.523-4.477 10-10 10h30c5.523 0 10-4.477 10-10v-195.257c0-5.523-4.478-10-10-10z" fill="#fd4755" data-original="#fd4755" class=""></path><path d="m214.415 62.198c0 9.826-6.965 16.791-16.791 16.791-2.457 0-4.797.502-6.925-.398-6.386-2.701-10.866-9.024-10.866-16.393 0-7.34 4.445-13.642 10.79-16.36 2.149-.921 4.516-.431 7.002-.431 9.825 0 16.79 6.965 16.79 16.791z" fill="#6cf5c2" data-original="#6cf5c2" class=""></path><path d="m197.624 44.407c-2.486 0-4.851.513-7 1.434 6.345 2.719 10.791 9.017 10.791 16.357s-4.446 13.638-10.791 16.357c2.149.921 4.514 1.434 7 1.434 9.826 0 17.791-7.965 17.791-17.791s-7.965-17.791-17.791-17.791z" fill="#05e39c" data-original="#05e39c" class=""></path><path d="m143.001 62.198c0 9.826-6.965 16.791-16.791 16.791-2.456 0-4.797.502-6.925-.398-6.386-2.701-10.866-9.024-10.866-16.393 0-7.34 4.445-13.642 10.79-16.36 2.149-.921 4.516-.431 7.002-.431 9.824 0 16.79 6.965 16.79 16.791z" fill="#ffe282" data-original="#ffe282" class=""></path><path d="m126.209 44.407c-2.486 0-4.851.513-7 1.434 6.345 2.719 10.791 9.017 10.791 16.357s-4.446 13.638-10.791 16.357c2.149.921 4.514 1.434 7 1.434 9.826 0 17.791-7.965 17.791-17.791s-7.965-17.791-17.791-17.791z" fill="#ffd368" data-original="#ffd368" class=""></path><path d="m71.586 62.198c0 9.826-6.965 16.791-16.791 16.791-2.457 0-4.797.502-6.925-.398-6.386-2.701-10.866-9.024-10.866-16.393 0-7.34 4.445-13.642 10.79-16.36 2.149-.921 4.516-.431 7.002-.431 9.824 0 16.79 6.965 16.79 16.791z" fill="#fd8087" data-original="#fd8087" class=""></path><path d="m54.795 44.407c-2.486 0-4.851.513-7 1.434 6.345 2.719 10.791 9.017 10.791 16.357s-4.446 13.638-10.791 16.357c2.149.921 4.514 1.434 7 1.434 9.826 0 17.791-7.965 17.791-17.791s-7.966-17.791-17.791-17.791z" fill="#fd4755" data-original="#fd4755" class=""></path></g></g></svg>